<svg xmlns="http://www.w3.org/2000/svg" viewBox="0 0 600 240" width="100%" height="100%">
  <!-- Left Head (Dark Blue) -->
  <circle cx="225" cy="55" r="21" fill="#0d284a" />
  
  <!-- Right Head (Gold) -->
  <circle cx="375" cy="55" r="21" fill="#cca042" />

  <!-- Left Body (Dark Blue) -->
  <path d="M 248,82
           C 200,82 135,115 135,160
           C 135,205 195,225 240,225
           C 285,225 330,195 385,112
           C 340,175 295,208 240,208
           C 205,208 152,192 152,160
           C 152,128 205,97 248,97
           Z" fill="#0d284a" />

  <!-- Right Body (Gold) -->
  <path d="M 352,82
           C 400,82 465,115 465,160
           C 465,205 405,225 360,225
           C 315,225 270,195 215,112
           C 260,175 305,208 360,208
           C 395,208 448,192 448,160
           C 448,128 395,97 352,97
           Z" fill="#cca042" />
</svg>
